<svg width="512" height="512" viewBox="0 0 512 512" fill="none" xmlns="http://www.w3.org/2000/svg">
<g clip-path="url(#clip0_1_22)">
<rect width="512" height="512" rx="100" fill="#00AEE7"/>
<path d="M101.468 319.733H79.2231V216.999H40V198.411H140.6V216.999H101.468V319.733Z" fill="white"/>
<path d="M227.672 230.329C225.311 241.633 222.587 253.299 219.5 265.329L205.881 319.733H183.727L145.14 198.411H168.837L183.455 246.741C187.873 261.913 191.445 275.635 194.169 287.907H194.713C197.377 274.729 200.464 261.218 203.974 247.375L216.504 198.411H239.384L251.914 247.375C255.424 261.097 258.511 274.608 261.175 287.907H261.719C265.049 273.399 268.62 259.677 272.433 246.741L287.051 198.411H310.748L272.161 319.733H250.007L236.388 265.329C233.301 253.057 230.577 241.391 228.216 230.329H227.672Z" fill="white"/>
<path d="M326.882 201.999C325.766 209.241 331.159 214.998 338.411 214.998C345.663 214.998 351.799 209.241 352.915 201.999C353.658 194.757 348.266 189 341.014 189C333.762 189 327.626 194.757 326.882 201.999ZM309.961 299.12C306.428 316.019 317.213 321.219 326.51 321.219C338.969 321.219 351.427 312.677 360.166 302.834C361.282 301.535 361.84 300.049 361.84 298.749C361.84 296.892 360.724 295.221 358.679 294.292C354.03 298.935 346.035 303.577 339.154 303.577C334.32 303.577 331.345 300.235 333.576 289.835L344.919 236.168C346.406 229.111 342.687 225.954 335.993 225.954C328.184 225.954 321.49 229.854 315.167 234.868C311.448 237.839 312.75 243.596 315.167 245.082C316.841 243.596 317.957 242.853 318.886 242.853C320.56 242.853 321.304 244.524 320.746 247.496L309.961 299.12Z" fill="white"/>
<path d="M448.755 273.399H421.517V254.811H471V316.016C469.184 316.68 466.854 317.376 464.009 318.101C461.224 318.826 458.077 319.461 454.566 320.005C451.116 320.61 447.545 321.093 443.853 321.456C440.16 321.819 436.498 322 432.866 322C421.971 322 412.438 320.549 404.266 317.648C396.155 314.686 389.376 310.545 383.928 305.225C378.541 299.906 374.486 293.589 371.762 286.274C369.099 278.9 367.767 270.769 367.767 261.883C367.767 255.596 368.463 249.612 369.855 243.93C371.308 238.187 373.396 232.898 376.12 228.062C378.904 223.165 382.264 218.752 386.198 214.823C390.133 210.894 394.612 207.539 399.636 204.758C404.72 201.978 410.259 199.862 416.251 198.411C422.304 196.9 428.781 196.144 435.681 196.144C441.795 196.144 447.605 196.598 453.114 197.505C458.622 198.351 463.131 199.409 466.642 200.678V219.538C461.921 218.027 457.139 216.879 452.296 216.093C447.515 215.307 442.672 214.914 437.769 214.914C431.172 214.914 424.998 215.911 419.247 217.906C413.497 219.841 408.503 222.742 404.266 226.611C400.09 230.419 396.791 235.134 394.37 240.756C391.949 246.378 390.738 252.876 390.738 260.251C390.798 274.577 394.551 285.337 401.996 292.531C409.442 299.664 420.004 303.23 433.684 303.23C436.226 303.23 438.859 303.11 441.583 302.868C444.306 302.566 446.697 302.203 448.755 301.78V273.399Z" fill="white"/>
</g>
<defs>
<clipPath id="clip0_1_22">
<rect width="512" height="512" fill="white"/>
</clipPath>
</defs>
</svg>
