<svg
	xmlns="http://www.w3.org/2000/svg"
	xmlns:xlink="http://www.w3.org/1999/xlink">
	<defs>
		<symbol viewBox="0 0 24 24" id="favorite_outline">
			<path fill-rule="evenodd" clip-rule="evenodd" d="M8.075 3.905c-2.347 0-4.257 2.167-4.257 4.833 0 4.71 4.01 7.795 6.662 9.836.526.403 1.066.82 1.52 1.209.417-.36.91-.741 1.524-1.21 2.655-2.046 6.658-5.13 6.658-9.835 0-2.666-1.91-4.833-4.256-4.833-1.234 0-2.406.61-3.216 1.671a.897.897 0 01-.711.358.897.897 0 01-.71-.359c-.808-1.06-1.98-1.67-3.214-1.67zM12 22a.882.882 0 01-.609-.246l-.288-.272c-.432-.402-1.076-.894-1.697-1.372C6.455 17.841 2 14.413 2 8.738 2 5.023 4.725 2 8.075 2c1.452 0 2.837.572 3.925 1.598C13.09 2.572 14.475 2 15.926 2 19.276 2 22 5.023 22 8.738c0 5.668-4.448 9.096-7.392 11.364-.724.554-1.302 1.002-1.716 1.387l-.286.267A.88.88 0 0112 22z" />
		</symbol>
<symbol viewBox="0 0 24 24" id="compare">
			<path fill-rule="evenodd" clip-rule="evenodd" d="M19.114 19.117h-6.226V6.386l6.894 1.154a.89.89 0 00.294-1.754l-7.188-1.204v-.587a.889.889 0 10-1.78 0v.289L4.142 3.117a.885.885 0 00-1.024.73.889.889 0 00.73 1.025l7.262 1.216v13.029H4.883a.889.889 0 100 1.779h14.231a.889.889 0 100-1.78z" />
			<path fill-rule="evenodd" clip-rule="evenodd" d="M8.441 12a.889.889 0 00-.89-.889H3.105a.889.889 0 100 1.78h4.448c.491 0 .89-.398.89-.89zM20.896 13.78H16.45a.889.889 0 100 1.778h4.447a.889.889 0 100-1.778z" />
		</symbol>
<symbol viewBox="0 0 22 19" id="orders">
			<path fill-rule="evenodd" clip-rule="evenodd" d="M17.362 14.071h-10a.909.909 0 01-.898-.771l-1.7-11.044H1.908a.91.91 0 010-1.821h3.636a.91.91 0 01.898.77l1.7 11.066h8.565l2.52-7.579a.91.91 0 111.728.576l-2.727 8.181a.907.907 0 01-.866.622zM9.155 17.253a1.338 1.338 0 11-1.338-1.363 1.352 1.352 0 011.338 1.363zM18.245 17.253a1.338 1.338 0 11-1.338-1.363 1.351 1.351 0 011.338 1.363z" />
		</symbol>
	</defs>
</svg>